<?xml version="1.0" encoding="UTF-8" standalone="no"?>
<!-- Created with Inkscape (http://www.inkscape.org/) -->

<svg
   width="310.28821"
   height="47.508362"
   viewBox="0 0 310.28821 47.508362"
   version="1.1"
   id="svg5"
   inkscape:version="1.2.2 (1:1.2.2+202212051552+b0a8486541)"
   sodipodi:docname="rendezvous.svg"
   xmlns:inkscape="http://www.inkscape.org/namespaces/inkscape"
   xmlns:sodipodi="http://sodipodi.sourceforge.net/DTD/sodipodi-0.dtd"
   xmlns:xlink="http://www.w3.org/1999/xlink"
   xmlns="http://www.w3.org/2000/svg"
   xmlns:svg="http://www.w3.org/2000/svg">
  <sodipodi:namedview
     id="namedview7"
     pagecolor="#505050"
     bordercolor="#ffffff"
     borderopacity="1"
     inkscape:showpageshadow="0"
     inkscape:pageopacity="0"
     inkscape:pagecheckerboard="1"
     inkscape:deskcolor="#505050"
     inkscape:document-units="px"
     showgrid="false"
     inkscape:zoom="0.23933523"
     inkscape:cx="871.16301"
     inkscape:cy="196.37727"
     inkscape:window-width="1920"
     inkscape:window-height="1018"
     inkscape:window-x="0"
     inkscape:window-y="0"
     inkscape:window-maximized="1"
     inkscape:current-layer="layer1" />
  <defs
     id="defs2">
    <linearGradient
       inkscape:collect="always"
       id="linearGradient23173">
      <stop
         style="stop-color:#22c55e;stop-opacity:1;"
         offset="0"
         id="stop23169" />
      <stop
         style="stop-color:#10b981;stop-opacity:1;"
         offset="1"
         id="stop23171" />
    </linearGradient>
    <linearGradient
       inkscape:collect="always"
       xlink:href="#linearGradient23173"
       id="linearGradient3351"
       gradientUnits="userSpaceOnUse"
       x1="1691.8083"
       y1="564.79767"
       x2="2062.0967"
       y2="464.79764"
       gradientTransform="translate(22.4424,368.55938)" />
  </defs>
  <g
     inkscape:label="Layer 1"
     inkscape:groupmode="layer"
     id="layer1"
     transform="translate(-1744.2509,-859.60303)">
    <path
       id="path3347"
       style="font-weight:800;font-size:58.4424px;font-family:Nunito;-inkscape-font-specification:'Nunito Ultra-Bold';letter-spacing:-2px;fill:url(#linearGradient3351);fill-opacity:1;stroke-width:10;stroke-linecap:round;stroke-linejoin:round"
       d="m 2041.2726,891.21762 q -1.2857,0 -2.0455,-0.8182 -0.7013,-0.87663 -0.7013,-2.33769 0,-1.69483 0.4091,-3.15589 0.4091,-1.5195 1.2858,-3.03901 0.935,-1.5195 2.4545,-3.09744 1.052,-1.22729 1.6949,-2.10393 0.7013,-0.93508 0.935,-1.75327 0.2923,-0.87664 0.2923,-1.75327 0,-1.63639 -1.2273,-2.57147 -1.1689,-0.93508 -3.3897,-0.93508 -2.1039,0 -3.9156,0.52598 -1.7533,0.52598 -3.4481,1.51951 -1.5195,0.81819 -2.7468,0.64286 -1.1689,-0.23377 -1.8702,-1.05196 -0.7013,-0.87664 -0.8182,-2.04549 -0.1169,-1.16884 0.526,-2.27925 0.6429,-1.16885 2.1624,-2.04548 2.3961,-1.40262 5.3182,-2.10393 2.9221,-0.70131 5.4352,-0.70131 3.8572,0 6.7793,1.28573 2.9221,1.28574 4.5001,3.50655 1.6363,2.22081 1.6363,5.20137 0,1.81172 -0.5259,3.38966 -0.526,1.57795 -1.6949,3.15589 -1.1688,1.5195 -3.2143,3.21433 -1.8117,1.51951 -2.8637,2.7468 -1.0519,1.16884 -1.5195,2.27925 -0.4675,1.05196 -0.6428,2.27925 -0.1754,0.87664 -0.8767,1.46106 -0.6428,0.58443 -1.9286,0.58443 z m -0.1169,13.03265 q -2.3377,0 -3.7403,-1.40261 -1.3442,-1.40262 -1.3442,-3.62343 0,-2.16237 1.3442,-3.50655 1.4026,-1.40261 3.7403,-1.40261 2.3377,0 3.6235,1.40261 1.3441,1.34418 1.3441,3.50655 0,2.22081 -1.3441,3.62343 -1.2858,1.40261 -3.6235,1.40261 z m -35.5288,0.23377 q -2.1624,0 -3.3312,-1.16884 -1.1105,-1.16885 -1.1105,-3.33122 v -20.74705 q 0,-2.16237 1.1105,-3.27278 1.1688,-1.16885 3.2143,-1.16885 2.1039,0 3.2143,1.16885 1.1104,1.11041 1.1104,3.27278 v 3.33121 l -0.6428,-1.9286 q 1.3441,-2.86367 3.974,-4.38318 2.6884,-1.57794 6.078,-1.57794 3.4481,0 5.669,1.34417 2.2208,1.28574 3.3312,3.97409 1.1104,2.6299 1.1104,6.72087 v 13.26643 q 0,2.16237 -1.1689,3.33122 -1.1104,1.16884 -3.2727,1.16884 -2.104,0 -3.2728,-1.16884 -1.1104,-1.16885 -1.1104,-3.33122 v -12.85733 q 0,-2.98056 -1.1104,-4.2663 -1.052,-1.34417 -3.2728,-1.34417 -2.8052,0 -4.5001,1.75327 -1.6364,1.75327 -1.6364,4.67539 v 12.03914 q 0,4.50006 -4.3831,4.50006 z m -23.0718,0.11689 q -4.6169,0 -8.065,-1.81172 -3.3897,-1.81171 -5.2598,-5.20137 -1.8702,-3.38966 -1.8702,-8.00661 0,-3.4481 1.052,-6.19489 1.0519,-2.7468 3.039,-4.6754 2.0455,-1.98704 4.8507,-2.98056 2.8052,-1.05196 6.2533,-1.05196 4.617,0 8.0066,1.81171 3.4481,1.81172 5.3183,5.14293 1.9286,3.33122 1.9286,7.94817 0,3.50654 -1.1104,6.25334 -1.052,2.74679 -3.039,4.73383 -1.987,1.98704 -4.8507,3.03901 -2.8053,0.99352 -6.2534,0.99352 z m 0,-6.60399 q 1.9286,0 3.3313,-0.93508 1.4026,-0.93508 2.2208,-2.74679 0.8182,-1.87016 0.8182,-4.73384 0,-4.26629 -1.7533,-6.25334 -1.7533,-2.04548 -4.617,-2.04548 -1.8701,0 -3.3312,0.87664 -1.4026,0.87663 -2.2208,2.74679 -0.7597,1.81171 -0.7597,4.67539 0,4.2663 1.7532,6.37022 1.7533,2.04549 4.5585,2.04549 z m -47.8642,6.60399 q -2.5714,0 -5.3182,-0.46754 -2.6884,-0.46754 -4.9092,-1.57795 -1.1688,-0.58442 -1.6948,-1.46106 -0.4676,-0.93507 -0.4091,-1.87015 0.058,-0.93508 0.5844,-1.69483 0.5844,-0.75975 1.4611,-0.99352 0.935,-0.29222 2.0455,0.17532 2.3961,0.99352 4.3831,1.40262 1.9871,0.4091 3.9157,0.4091 2.513,0 3.6234,-0.75975 1.1689,-0.8182 1.1689,-2.10393 0,-1.16885 -0.7598,-1.75327 -0.7597,-0.58443 -2.2208,-0.8182 l -6.1365,-1.1104 q -3.6234,-0.64287 -5.6104,-2.62991 -1.9286,-2.04548 -1.9286,-5.20137 0,-2.92212 1.6364,-5.02605 1.6363,-2.16237 4.5,-3.27277 2.9221,-1.16885 6.604,-1.16885 2.6299,0 4.8507,0.46754 2.2208,0.46754 4.2663,1.5195 1.052,0.52598 1.4611,1.40262 0.4675,0.87663 0.2922,1.81171 -0.1169,0.93508 -0.7013,1.69483 -0.5844,0.75975 -1.5195,0.99352 -0.8766,0.23377 -2.0455,-0.23377 -1.8702,-0.87663 -3.4481,-1.22729 -1.5779,-0.40909 -3.039,-0.40909 -2.6299,0 -3.7988,0.87663 -1.1688,0.8182 -1.1688,2.10393 0,0.99352 0.6429,1.69483 0.7013,0.64286 2.1039,0.87663 l 6.1364,1.11041 q 3.7988,0.64287 5.7858,2.57147 1.9871,1.87015 1.9871,5.14293 0,4.44162 -3.5066,7.01308 -3.4481,2.51303 -9.2339,2.51303 z m -20.4752,-25.13634 q -1.1136,-0.6429 -1.4559,-1.92026 -0.3422,-1.2773 0.2657,-2.68093 l 3.9554,-9.18854 q 0.8787,-1.98957 2.7228,-2.61198 1.9237,-0.64388 3.7459,0.40812 1.2146,0.7013 1.775,1.8346 0.6402,1.11194 0.5113,2.38719 -0.1289,1.27525 -0.9607,2.48212 l -5.9798,8.01974 q -0.9117,1.22823 -2.1889,1.57053 -1.2268,0.37146 -2.3908,-0.30059 z m -18.1032,25.13634 q -4.617,0 -8.0651,-1.81172 -3.3896,-1.81171 -5.2598,-5.20137 -1.8701,-3.38966 -1.8701,-8.00661 0,-3.4481 1.0519,-6.19489 1.052,-2.7468 3.039,-4.6754 2.0455,-1.98704 4.8508,-2.98056 2.8052,-1.05196 6.2533,-1.05196 4.6169,0 8.0066,1.81171 3.4481,1.81172 5.3183,5.14293 1.9286,3.33122 1.9286,7.94817 0,3.50654 -1.1104,6.25334 -1.052,2.74679 -3.039,4.73383 -1.9871,1.98704 -4.8508,3.03901 -2.8052,0.99352 -6.2533,0.99352 z m 0,-6.60399 q 1.9286,0 3.3312,-0.93508 1.4026,-0.93508 2.2208,-2.74679 0.8182,-1.87016 0.8182,-4.73384 0,-4.26629 -1.7533,-6.25334 -1.7532,-2.04548 -4.6169,-2.04548 -1.8702,0 -3.3312,0.87664 -1.4026,0.87663 -2.2208,2.74679 -0.7598,1.81171 -0.7598,4.67539 0,4.2663 1.7533,6.37022 1.7533,2.04549 4.5585,2.04549 z m -42.124,6.4871 q -2.1624,0 -3.3312,-1.16884 -1.1104,-1.16885 -1.1104,-3.33122 v -33.25373 q 0,-2.22081 1.1104,-3.33122 1.1688,-1.16884 3.3312,-1.16884 2.1039,0 3.2143,1.16884 1.1689,1.11041 1.1689,3.33122 v 13.90929 h -0.8182 q 1.3442,-2.86367 3.9741,-4.38318 2.6883,-1.57794 6.078,-1.57794 3.4481,0 5.6689,1.34417 2.2208,1.28574 3.3312,3.97409 1.1104,2.6299 1.1104,6.72087 v 13.26643 q 0,2.16237 -1.1688,3.33122 -1.1104,1.16884 -3.2728,1.16884 -2.1039,0 -3.2728,-1.16884 -1.1104,-1.16885 -1.1104,-3.33122 v -12.85733 q 0,-2.98056 -1.1104,-4.2663 -1.0519,-1.34417 -3.2728,-1.34417 -2.8052,0 -4.5,1.75327 -1.6364,1.75327 -1.6364,4.67539 v 12.03914 q 0,4.50006 -4.3832,4.50006 z m -40.955,0 q -1.7533,0 -2.9806,-0.81819 -1.2273,-0.87664 -1.987,-2.74679 l -8.2404,-20.3964 q -0.6429,-1.63639 -0.4091,-2.86368 0.2337,-1.28573 1.2273,-2.04548 1.0519,-0.8182 2.8636,-0.8182 1.5195,0 2.5131,0.75975 0.9935,0.70131 1.6948,2.7468 l 6.4287,17.12362 h -1.3442 l 6.6624,-17.88337 q 0.4676,-1.40262 1.3442,-2.04549 0.9351,-0.70131 2.3961,-0.70131 1.4611,0 2.3377,0.70131 0.9351,0.70131 1.4611,2.04549 l 6.5455,17.88337 h -1.1104 l 6.3703,-17.35739 q 0.7013,-1.87016 1.8117,-2.57147 1.1104,-0.70131 2.3961,-0.70131 1.6364,0 2.513,0.8182 0.9351,0.81819 1.052,2.10392 0.1753,1.28574 -0.4675,2.80524 l -8.182,20.3964 q -0.7013,1.81171 -1.987,2.68835 -1.2273,0.87663 -2.9806,0.87663 -1.6948,0 -2.9805,-0.87663 -1.2273,-0.87664 -1.9871,-2.68835 l -7.0131,-18.23403 h 3.7988 l -6.8378,18.17558 q -0.7013,1.81172 -1.9286,2.7468 -1.2273,0.87663 -2.9805,0.87663 z m -52.9309,-44.86378 c -11.8911,-0.5919 -20.008,14.1796 -13.598,23.9253 4.5327,7.8554 13.598,23.5658 13.598,23.5658 0,0 9.2895,-16.1087 13.9382,-24.1604 5.8042,-10.0273 -2.2641,-23.7151 -13.9398,-23.3317 z" />
  </g>
</svg>
